<?xml version="1.0" encoding="UTF-8" standalone="no"?>
<svg width="581px" height="621px" viewBox="0 0 581 621" version="1.1" xmlns="http://www.w3.org/2000/svg" xmlns:xlink="http://www.w3.org/1999/xlink">
    <!-- Generator: Sketch 3.6.1 (26313) - http://www.bohemiancoding.com/sketch -->
    <title>Combined Shape</title>
    <desc>Created with Sketch.</desc>
    <defs></defs>
    <g id="Page-1" stroke="none" stroke-width="1" fill="none" fill-rule="evenodd">
        <rect id="Combined-Shape" fill="#FFFFFF" x="0" y="0" width="580.696426" height="620.695841"></rect>
        <g id="Artboard-1" transform="translate(-277.000000, -223.000000)">
            <rect id="Rectangle-1" fill-opacity="0.640313632" fill="#9B9B9B" x="532.925259" y="406.992413" width="267.850549" height="20" rx="100"></rect>
            <rect id="Rectangle-1" fill-opacity="0.640313632" fill="#9B9B9B" x="532.925259" y="452.385719" width="183.368236" height="20" rx="100"></rect>
            <rect id="Rectangle-1" fill-opacity="0.640313632" fill="#9B9B9B" x="532.925259" y="542.803347" width="267.850549" height="20" rx="100"></rect>
            <rect id="Rectangle-1" fill-opacity="0.640313632" fill="#9B9B9B" x="532.925259" y="588.196653" width="183.368236" height="20" rx="100"></rect>
            <rect id="Rectangle-1" fill-opacity="0.640313632" fill="#9B9B9B" x="532.925259" y="678.614281" width="267.850549" height="20" rx="100"></rect>
            <rect id="Rectangle-1" fill-opacity="0.640313632" fill="#9B9B9B" x="532.925259" y="724.007587" width="183.368236" height="20" rx="100"></rect>
            <path d="M383.120814,472.413976 L388.046044,477.339206 L476.70018,388.68507 C476.70018,388.68507 481.62541,383.75984 476.70018,378.83461 C471.774951,373.90938 466.849721,378.83461 466.849721,378.83461 L388.046044,457.638287 L349.237658,418.829901 C349.237658,418.829901 345.465655,415.057897 340.540425,419.983127 C335.615195,424.908357 339.387199,428.68036 339.387199,428.68036 L383.120814,472.413976 Z" id="Combined-Shape" fill="#2196F3"></path>
            <path d="M383.120814,608.22491 L388.046044,613.15014 L476.70018,524.496004 C476.70018,524.496004 481.62541,519.570774 476.70018,514.645544 C471.774951,509.720315 466.849721,514.645544 466.849721,514.645544 L388.046044,593.449221 L349.237658,554.640835 C349.237658,554.640835 345.465655,550.868831 340.540425,555.794061 C335.615195,560.719291 339.387199,564.491294 339.387199,564.491294 L383.120814,608.22491 Z" id="Combined-Shape" fill="#2196F3"></path>
            <path d="M383.120814,744.035844 L388.046044,748.961074 L476.70018,660.306938 C476.70018,660.306938 481.62541,655.381708 476.70018,650.456478 C471.774951,645.531249 466.849721,650.456478 466.849721,650.456478 L388.046044,729.260155 L349.237658,690.451769 C349.237658,690.451769 345.465655,686.679765 340.540425,691.604995 C335.615195,696.530225 339.387199,700.302228 339.387199,700.302228 L383.120814,744.035844 Z" id="Combined-Shape" fill="#2196F3"></path>
        </g>
    </g>
</svg>