<?xml version="1.0" encoding="UTF-8" standalone="no"?>
<svg width="589px" height="630px" viewBox="0 0 589 630" version="1.1" xmlns="http://www.w3.org/2000/svg" xmlns:xlink="http://www.w3.org/1999/xlink">
    <!-- Generator: Sketch 3.6.1 (26313) - http://www.bohemiancoding.com/sketch -->
    <title>Path 2</title>
    <desc>Created with Sketch.</desc>
    <defs></defs>
    <g id="Page-1" stroke="none" stroke-width="1" fill="none" fill-rule="evenodd">
        <path d="M5.99999994,91.0000033 C2.63536179,84.7513882 26.7899616,74.8035464 47.0000004,57.9999995 C68.8361695,39.8444138 79.9999971,13.0000005 90.9999971,17.0000005 C101.999997,21.0000005 129.989393,43.0000029 171.000005,43.0000014 C236.000005,42.9999991 232.756346,4.75902538 293,5 C353.243654,5.24097462 357.000005,42.9999989 413,43 C460.106906,43.000001 498,26.999999 505,22.9999995 C512,19 520.012585,35.4173395 535,49.9999995 C553.969029,68.4567448 584,80.0000033 584,91.0000033 C584,96.3935258 555,149.000004 540,199 C525,248.999996 576,381.000011 544,460.000011 C512,539.000011 397,548.000011 375,559.000011 C364.850902,564.07456 348.244427,573.298311 334,587.000011 C317.367064,602.999215 306,625.557506 297,625.000011 C288,624.442516 282.781337,610.534494 269,596.000011 C254.124712,580.311793 256,580.000011 227,565.000011 C198,550.000011 78,543.000011 44,456.000011 C10,369.000011 51,288.000007 51,228.999996 C51,169.999985 13.0000001,104.000007 5.99999994,91.0000033 Z" id="Path-2" stroke="#FFFFFF" stroke-width="10" fill="#00BCD4"></path>
    </g>
</svg>